HIERARCHY
ROOT Hips
{
	OFFSET -3.958830 18.904000 13.208200
	CHANNELS 6 Xposition Yposition Zposition Zrotation Yrotation Xrotation 
	JOINT LHipJoint
	{
		OFFSET 0.000000 0.000000 0.000000
		CHANNELS 3 Zrotation Yrotation Xrotation
		JOINT LeftUpLeg
		{
			OFFSET 1.800000 -1.400000 0.085000
			CHANNELS 3 Zrotation Yrotation Xrotation
			JOINT LeftLeg
			{
				OFFSET 2.215000 -6.000000 0.000000
				CHANNELS 3 Zrotation Yrotation Xrotation
				JOINT LeftFoot
				{
					OFFSET 2.500000 -6.900000 0.000000
					CHANNELS 3 Zrotation Yrotation Xrotation
					JOINT LeftToeBase
					{
						OFFSET 0.200000 -0.500000 1.950000
						CHANNELS 3 Zrotation Yrotation Xrotation
						End Site
						{
							OFFSET 0.000000 0.000000 0.000000
						}
					}
				}
			}
		}
	}
	JOINT RHipJoint
	{
		OFFSET 0.000000 0.000000 0.000000
		CHANNELS 3 Zrotation Yrotation Xrotation
		JOINT RightUpLeg
		{
			OFFSET -1.800000 -1.400000 0.085000
			CHANNELS 3 Zrotation Yrotation Xrotation
			JOINT RightLeg
			{
				OFFSET -2.215000 -6.000000 0.000000
				CHANNELS 3 Zrotation Yrotation Xrotation
				JOINT RightFoot
				{
					OFFSET -2.500000 -6.900000 0.000000
					CHANNELS 3 Zrotation Yrotation Xrotation
					JOINT RightToeBase
					{
						OFFSET -0.200000 -0.500000 1.950000
						CHANNELS 3 Zrotation Yrotation Xrotation
						End Site
						{
							OFFSET 0.000000 0.000000 0.000000
						}
					}
				}
			}
		}
	}
	JOINT LowerBack
	{
		OFFSET 0.000000 0.000000 0.000000
		CHANNELS 3 Zrotation Yrotation Xrotation
		JOINT Spine
		{
			OFFSET -0.087000 1.940000 -0.288900
			CHANNELS 3 Zrotation Yrotation Xrotation
			JOINT Spine1
			{
				OFFSET 0.000000 1.950000 0.060000
				CHANNELS 3 Zrotation Yrotation Xrotation
				JOINT Neck
				{
					OFFSET 0.000000 0.000000 0.000000
					CHANNELS 3 Zrotation Yrotation Xrotation
					JOINT Neck1
					{
						OFFSET 0.000000 1.600000 0.340000
						CHANNELS 3 Zrotation Yrotation Xrotation
						JOINT Head
						{
							OFFSET 0.000000 1.667000 -0.240000
							CHANNELS 3 Zrotation Yrotation Xrotation
							End Site
							{
								OFFSET 0.000000 0.000000 0.000000
							}
						}
					}
				}
				JOINT LeftShoulder
				{
					OFFSET 0.000000 0.000000 0.000000
					CHANNELS 3 Zrotation Yrotation Xrotation
					JOINT LeftArm
					{
						OFFSET 2.700000 1.550000 -0.730000
						CHANNELS 3 Zrotation Yrotation Xrotation
						JOINT LeftForeArm
						{
							OFFSET 5.450000 0.000000 0.000000
							CHANNELS 3 Zrotation Yrotation Xrotation
							JOINT LeftHand
							{
								OFFSET 3.450000 0.000000 0.000000
								CHANNELS 3 Zrotation Yrotation Xrotation
								JOINT LeftHandIndex1
								{
									OFFSET 0.750000 0.000000 0.000000
									CHANNELS 3 Zrotation Yrotation Xrotation
									End Site
									{
										OFFSET 0.000000 0.000000 0.000000
									}
								}
							}
						}
					}
				}
				JOINT RightShoulder
				{
					OFFSET 0.000000 0.000000 0.000000
					CHANNELS 3 Zrotation Yrotation Xrotation
					JOINT RightArm
					{
						OFFSET -2.700000 1.550000 -0.730000
						CHANNELS 3 Zrotation Yrotation Xrotation
						JOINT RightForeArm
						{
							OFFSET -5.450000 0.000000 0.000000
							CHANNELS 3 Zrotation Yrotation Xrotation
							JOINT RightHand
							{
								OFFSET -3.450000 0.000000 0.000000
								CHANNELS 3 Zrotation Yrotation Xrotation
								JOINT RightHandIndex1
								{
									OFFSET -0.750000 0.000000 0.000000
									CHANNELS 3 Zrotation Yrotation Xrotation
									End Site
									{
										OFFSET 0.000000 0.000000 0.000000
									}
								}
							}
						}
					}
				}
			}
		}
	}
}
MOTION
Frames: 7
Frame Time: 0.016667
0.667440 16.899120 -2.518890 -15.276788 -11.817647 -1.949801 -15.591758 10.544296 2.522444 31.703114 -1.849447 -24.751654 -7.040257 13.806024 38.298465 -0.630445 9.132329 1.367907 0.452000 0.138700 0.113190 18.830224 -5.479302 7.489730 -30.024185 8.649672 -79.660736 8.224977 -45.239061 103.858926 -4.446031 -20.238375 -0.913426 0.239400 0.455130 -0.014930 -4.072657 -3.537507 -9.872099 16.109926 -14.752874 57.149368 -6.143876 -8.301436 -1.532203 1.607520 -10.487897 -8.348812 -18.298228 10.236984 13.928950 -2.199300 3.464490 -37.250500 -23.892064 -3.628723 0.186242 -13.595318 11.041744 -11.320779 133.034215 -54.860567 -113.100421 -3.718008 2.445965 1.140190 0.022940 -0.091760 0.306520 21.613974 6.932766 7.664065 31.653478 -14.596336 -12.328192 60.025570 78.242097 37.358437 1.560350 -1.519147 -0.663820 0.787130 0.147370 -0.351680 
0.769600 16.833840 -2.531660 -14.564235 -15.108484 -3.634583 -15.696952 10.565891 2.578894 31.886110 -1.676399 -23.421601 -8.875539 15.738587 40.983631 -0.329863 9.870977 1.146937 0.382830 0.062410 0.026590 18.751566 -5.094774 7.683497 -32.629167 9.619529 -81.191749 10.572499 -47.233494 104.048011 -4.535199 -20.606311 -0.938921 0.164100 0.447940 -0.044300 -3.936884 -3.995525 -10.014584 14.398391 -13.739845 61.802783 -4.130491 -7.984829 -3.420853 1.627727 -12.100383 -9.728305 -22.289389 11.556238 13.458440 -2.207290 2.173830 -35.499490 -23.621859 -4.800127 1.607636 -17.614917 10.936643 -10.651797 120.543910 -64.691586 -106.664221 -3.724480 2.026561 1.090240 -0.009050 -0.122930 0.311480 21.659530 9.920653 8.294681 32.852580 -10.474032 -11.459628 63.177297 81.323138 41.764724 1.783892 -1.312534 -0.631910 0.747330 0.156480 -0.304160 
0.866900 16.754510 -2.491470 -14.096746 -15.276236 -3.947673 -15.738487 10.419025 2.779688 31.789016 -2.437825 -24.443765 -10.239297 17.124896 43.862016 -0.187444 10.521770 0.933408 0.383450 0.047140 0.045360 18.738459 -4.892067 7.707726 -34.289307 8.150809 -80.954334 11.581911 -48.298733 103.581765 -4.540493 -20.569344 -0.937804 0.152620 0.434200 -0.033710 -3.894355 -4.216609 -10.115526 15.402250 -15.000284 61.415083 -3.929857 -8.532534 -4.822922 1.161301 -12.298616 -9.275184 -23.253851 12.111822 14.821410 -3.299230 1.861940 -35.086300 -24.321454 -7.015297 -0.107242 -18.270008 9.549880 -13.722142 88.010124 -80.195551 -74.003388 -3.064506 -1.433163 1.099580 -0.016780 -0.111090 0.298270 22.764283 11.445086 9.038598 33.910582 -7.680368 -9.988532 71.758699 83.401563 48.578571 2.193462 -0.646814 -0.622870 0.751820 0.169260 -0.310470 
0.942800 16.681920 -2.434240 -13.598814 -16.637696 -4.498372 -15.760348 10.466945 2.976676 32.000374 -2.616383 -23.926880 -11.964383 18.575936 45.406321 0.059593 10.977100 0.787042 0.408730 0.082180 0.105410 18.684056 -4.946810 7.502475 -33.579532 8.860496 -77.785309 11.452462 -47.261462 102.827112 -4.504866 -20.315190 -0.896410 0.120120 0.348240 -0.003100 -3.824890 -4.368721 -10.164312 15.794193 -15.013388 60.133029 -4.044939 -8.487450 -4.717346 2.159222 -11.784508 -9.875140 -23.122182 12.378707 18.537920 -6.243100 3.214570 -33.806550 -26.448623 -10.298083 0.814911 -17.440840 8.428739 -14.051542 21.271225 -74.939667 -18.484463 -3.252463 2.557678 1.077490 -0.039100 -0.042730 0.296520 23.152142 14.423783 9.448738 35.730996 -4.999981 -10.704103 75.994114 81.943644 49.739440 2.453049 -0.405634 -0.544750 0.669560 0.107040 -0.306650 
0.994190 16.649570 -2.351750 -11.923674 -18.318497 -5.729915 -15.770611 10.794340 2.947994 30.609452 -2.599102 -21.751993 -13.347202 19.271896 45.322290 0.218250 11.063087 0.750530 0.430060 0.124740 0.158840 18.596365 -5.089660 7.331275 -33.048299 9.959041 -74.037641 11.434877 -45.739996 101.962025 -4.438668 -19.963570 -0.839378 0.101120 0.261760 0.020790 -3.681127 -4.695285 -10.132478 15.101290 -14.076115 58.506342 -3.720855 -8.480758 -4.654084 2.523673 -10.989997 -10.310021 -22.623490 13.193689 23.245841 -9.432990 5.018000 -32.699050 -28.429192 -12.573211 1.997280 -17.699235 6.397193 -11.856833 4.254547 -58.444694 -4.227833 -3.239058 2.792701 1.055930 -0.053990 0.022880 0.281380 24.215657 16.622245 9.147878 35.664065 -1.545768 -11.349489 74.358418 78.047011 45.719356 2.314982 -0.819123 -0.473440 0.601390 0.063310 -0.310780 
1.031510 16.638430 -2.259810 -10.734157 -18.680547 -6.764255 -15.677967 11.084687 2.912792 29.114881 -2.656042 -20.264004 -13.460700 19.194079 45.459697 0.278241 11.005368 0.759641 0.504020 0.230740 0.201160 18.584227 -5.576283 6.957075 -31.205046 10.479984 -68.345028 10.255085 -42.892191 100.549252 -4.286759 -19.342979 -0.749056 0.143820 0.226200 0.057630 -3.746751 -4.554913 -9.941682 16.474532 -14.694794 55.273985 -4.533467 -9.053132 -4.464949 2.280610 -10.663106 -10.217684 -23.047616 14.270710 27.055058 -10.295380 5.967740 -30.349580 -30.595494 -13.825440 2.583282 -16.841169 3.504796 -8.883326 -2.738476 -42.437340 -0.342742 -3.242444 2.853999 1.019630 -0.040270 0.070200 0.307450 26.615296 17.324588 8.351230 34.307049 1.512688 -10.808763 76.265056 74.156924 44.596127 2.278727 -0.991987 -0.406000 0.565650 0.011310 -0.291570 
1.033140 16.634570 -2.152090 -9.234530 -20.066818 -7.364688 -15.573396 11.385773 2.893592 27.802278 -2.043506 -18.048478 -14.500707 19.357147 43.954506 0.370574 10.904181 0.809682 0.483670 0.217800 0.186730 18.571503 -6.149380 6.507958 -28.821693 11.791206 -62.349631 9.377803 -39.211283 98.021551 -4.044991 -18.521826 -0.622934 0.110770 0.251830 0.113370 -3.848590 -4.268739 -9.714435 17.628597 -14.250512 50.954190 -5.606240 -8.905512 -3.758477 2.284411 -10.377738 -10.560293 -23.468106 15.481190 30.419613 -11.412820 7.340470 -26.468450 -31.735991 -14.417835 3.389521 -17.864077 2.447910 -6.534407 -5.860303 -31.088309 0.281958 -3.322543 2.821381 0.952450 0.014000 0.074060 0.305810 27.590603 17.918163 7.885472 35.257824 3.699513 -10.282443 81.023693 70.895890 45.723907 2.332196 -1.013713 -0.346680 0.523930 0.024190 -0.263750 
